<svg width="36" height="34" viewBox="0 0 36 34" fill="none" xmlns="http://www.w3.org/2000/svg">
<path fill-rule="evenodd" clip-rule="evenodd" d="M14.1943 17.9996C9.08159 22.8071 0.697266 19.1822 0.697266 12.1642V6.68199C0.697266 6.59913 0.701548 6.51675 0.710365 6.43436C0.71893 6.35197 0.731778 6.27006 0.748908 6.18886C0.766039 6.10766 0.787452 6.0274 0.813147 5.94833C0.838591 5.86902 0.868317 5.79113 0.901821 5.71466C0.935578 5.6382 0.973114 5.56339 1.01468 5.49047C1.05625 5.41755 1.10134 5.34653 1.15021 5.27764C1.19933 5.20898 1.25173 5.14246 1.30741 5.07854C1.36333 5.01438 1.42228 4.9533 1.48476 4.89459C1.54698 4.83611 1.61197 4.78072 1.67999 4.72816C1.74826 4.6756 1.8188 4.62636 1.8921 4.58043C1.96516 4.53427 2.04073 4.49189 2.11832 4.45283C2.19591 4.41377 2.27552 4.37849 2.35664 4.34677C2.43801 4.31504 2.52089 4.28711 2.60503 4.2632C2.68942 4.23905 2.77457 4.21916 2.86097 4.20283C2.94738 4.18673 3.03429 4.17466 3.12196 4.16661C3.20962 4.15832 3.29729 4.1543 3.38546 4.1543H8.70721C15.9627 4.1543 19.48 13.0294 14.1943 17.9996Z" fill="#1EA361"/>
<path fill-rule="evenodd" clip-rule="evenodd" d="M0.697266 31.1928C0.697266 30.8712 0.830143 30.5638 1.06446 30.3435L28.5281 4.5194C28.7788 4.28362 29.11 4.15234 29.4542 4.15234C29.5422 4.15234 29.6301 4.15637 29.7177 4.16442C29.8054 4.17247 29.8923 4.18478 29.9787 4.20088C30.0649 4.21697 30.1503 4.2371 30.2344 4.26101C30.3188 4.28516 30.4017 4.31309 30.4828 4.34458C30.5642 4.3763 30.6438 4.41181 30.7214 4.45064C30.799 4.4897 30.8745 4.53231 30.9476 4.57824C31.0209 4.62417 31.0914 4.67341 31.1595 4.72597C31.2277 4.77853 31.2927 4.83416 31.3549 4.89264C31.4172 4.95111 31.4764 5.01243 31.5323 5.07635C31.588 5.14051 31.6404 5.20679 31.6892 5.27569C31.7384 5.34458 31.7835 5.41536 31.825 5.48852C31.8663 5.56143 31.9041 5.63624 31.9376 5.71271C31.9714 5.78918 32.0011 5.86707 32.0266 5.94614C32.0523 6.02545 32.0734 6.1057 32.0908 6.18691C32.1079 6.26811 32.1208 6.34978 32.1293 6.43217C32.1382 6.51456 32.1424 6.59718 32.1424 6.68004C32.1424 6.99729 32.0114 7.30044 31.7803 7.51777L4.30522 33.3528C4.0586 33.5847 3.73281 33.7139 3.39428 33.7139C3.30611 33.7139 3.21844 33.7098 3.13077 33.7015C3.04311 33.6935 2.9562 33.6814 2.86979 33.6653C2.78338 33.649 2.69824 33.6291 2.61384 33.605C2.5297 33.581 2.44682 33.5531 2.36545 33.5214C2.28434 33.4897 2.20473 33.4544 2.12714 33.4153C2.04955 33.3763 1.97398 33.3339 1.90092 33.2877C1.82761 33.2418 1.75708 33.1926 1.68881 33.14C1.62079 33.0874 1.5558 33.032 1.49357 32.9736C1.4311 32.9149 1.37215 32.8538 1.31622 32.7896C1.26055 32.7257 1.20815 32.6592 1.15903 32.5905C1.11016 32.5216 1.06506 32.4506 1.0235 32.3777C0.981931 32.3048 0.944395 32.23 0.910639 32.1535C0.877134 32.077 0.847408 31.9991 0.821964 31.9198C0.796269 31.8408 0.774856 31.7605 0.757725 31.6793C0.740595 31.5981 0.727748 31.5162 0.719182 31.4338C0.710365 31.3514 0.706083 31.269 0.706083 31.1862" fill="#FEDB43"/>
<path fill-rule="evenodd" clip-rule="evenodd" d="M16.4292 33.7243C11.9428 33.7243 9.76788 28.2364 13.0363 25.163C14.943 23.3702 17.9154 23.3702 19.8221 25.163C23.0906 28.2363 20.9157 33.7243 16.4292 33.7243Z" fill="#5384C4"/>
<path fill-rule="evenodd" clip-rule="evenodd" d="M28.9343 33.7221C28.9301 33.7237 28.9254 33.7227 28.9222 33.7197L18.1407 23.5733C17.2131 22.7004 17.2134 21.2261 18.1414 20.3535C18.9922 19.5534 20.3187 19.5534 21.1696 20.3534L31.7949 30.3443C32.0292 30.5647 32.1621 30.872 32.1621 31.1936C32.1621 32.5892 30.9572 33.7213 29.4721 33.7213H28.9384C28.937 33.7213 28.9356 33.7216 28.9343 33.7221Z" fill="white"/>
<path fill-rule="evenodd" clip-rule="evenodd" d="M32.1531 18.9327C32.1564 23.3865 26.8371 25.6909 23.5903 22.6422C21.453 20.6354 21.4518 17.2416 23.5877 15.2333C26.831 12.1836 32.1498 14.4808 32.1531 18.9327Z" fill="#C2C2C1"/>
<path d="M6.31554 7.42292C7.63078 6.85747 9.21832 6.94626 10.4628 7.62217C10.8934 7.85602 10.9033 8.43345 10.5448 8.76742C10.2278 9.06273 9.73835 9.04645 9.34286 8.86957C8.00299 8.27031 6.15077 8.89021 5.63159 10.2589C4.83478 11.8377 6.1586 13.9054 8.03159 13.9362C8.75985 14.0154 9.48135 13.7788 10.0033 13.3355C10.5574 12.8649 10.0455 12.1492 9.31841 12.1493C9.18489 12.1493 9.05149 12.1495 8.91823 12.1499C8.51155 12.1513 8.17771 11.8255 8.17338 11.4189C8.16898 11.0064 8.50496 10.6711 8.91746 10.6763L10.4734 10.6961C11.6127 10.7106 12.6617 11.6054 12.35 12.7014C12.2597 13.0188 12.1269 13.325 11.9403 13.6114C11.0589 15.1552 8.97628 15.8289 7.21438 15.4395C5.03581 15.0152 3.40515 12.9134 3.70317 10.8315C3.85558 9.36302 4.9106 8.03206 6.33141 7.42387" fill="#EFEFEF"/>
<mask id="mask0_337_2202" style="mask-type:luminance" maskUnits="userSpaceOnUse" x="18" y="0" width="18" height="27">
<path d="M18.3906 8.80295C18.3906 3.94122 22.3318 0 27.1936 0C32.0553 0 35.9965 3.94122 35.9965 8.80295V17.2465C35.9965 22.1082 32.0553 26.0494 27.1936 26.0494C22.3318 26.0494 18.3906 22.1082 18.3906 17.2465V8.80295Z" fill="white"/>
</mask>
<g mask="url(#mask0_337_2202)">
<path d="M26.6611 -0.0117188H27.6836C30.2396 0.125828 32.7222 1.29604 34.2672 3.22052C35.2792 4.43714 35.8432 5.95537 35.9702 7.48022V8.04959C35.911 11.0216 33.8883 13.4613 32.1363 15.7735C30.1708 18.3857 28.3535 21.2326 27.8492 24.4523C27.7436 24.8793 27.8196 25.4403 27.5251 25.7819C27.3558 25.9784 27.0408 25.9353 26.8453 25.7648C26.7489 25.6808 26.7085 25.556 26.6927 25.4291C26.4757 23.6953 26.0026 21.986 25.2159 20.4014C24.2903 18.4951 22.9993 16.7548 21.6886 15.0617C20.891 14.0456 20.1375 12.9949 19.5153 11.8744C18.5456 10.1952 18.1728 8.21128 18.5721 6.32658C18.9001 4.83913 19.7178 3.46081 20.8741 2.395C22.4184 0.975496 24.5055 0.115885 26.6611 -0.0107718M26.4621 5.22431C25.2547 5.47809 24.2392 6.48401 24.1369 7.66086C24.01 8.7565 24.6921 9.868 25.7358 10.3519C26.8674 10.9154 28.3535 10.7413 29.2992 9.93761C30.1822 9.20323 30.5031 7.93524 30.0421 6.9092C29.4957 5.62464 27.8774 4.89382 26.4611 5.2352" fill="#DC4B3E"/>
</g>
<path d="M26.4624 5.22485C27.8779 4.89341 29.4977 5.61429 30.0434 6.89885C30.5044 7.92489 30.1827 9.19288 29.3005 9.92725C28.3548 10.7409 26.868 10.9216 25.7371 10.3416C24.6927 9.85765 24.0113 8.74615 24.1382 7.65051C24.2405 6.47366 25.255 5.46845 26.4634 5.21396" fill="#802C27"/>
</svg>
