<svg width="83" height="83" viewBox="0 0 83 83" fill="none" xmlns="http://www.w3.org/2000/svg">
<circle cx="41.5" cy="41.5" r="41.5" fill="#1F1E17"/>
<path d="M27.1793 27.5773V25.4173H40.4993V27.5773L37.4193 27.8973C37.3926 29.4439 37.3793 31.0173 37.3793 32.6173C37.3793 34.2173 37.3793 35.8306 37.3793 37.4573V41.6173C37.3793 45.2439 37.1393 48.1773 36.6593 50.4173C36.206 52.6573 35.2993 54.4573 33.9393 55.8173C32.046 57.6839 29.7926 58.6173 27.1793 58.6173C26.086 58.6173 25.126 58.4039 24.2993 57.9773C23.4726 57.5773 22.8326 56.9506 22.3793 56.0973C22.406 55.1639 22.726 54.4306 23.3393 53.8973C23.926 53.3906 24.6593 53.1373 25.5393 53.1373C26.2326 53.1373 26.8593 53.3106 27.4193 53.6573C27.9793 54.0306 28.566 54.5906 29.1793 55.3373L30.0193 56.3373C30.3393 55.7239 30.566 54.9106 30.6993 53.8973C30.8326 52.9106 30.8993 51.6839 30.8993 50.2173C30.8993 48.9639 30.886 47.3773 30.8593 45.4573C30.8326 43.5106 30.7926 41.1106 30.7393 38.2573C30.686 35.3773 30.6326 31.9373 30.5793 27.9373L27.1793 27.5773ZM49.8121 31.5373L46.4921 41.7373H53.0521L49.8121 31.5373ZM38.5721 51.6973V49.5373L41.8121 49.0573L49.9321 25.3773H54.0521L62.2521 49.3373L64.6921 49.6173V51.6973H52.3321V49.6173L55.4121 49.2173L53.7721 44.0573H45.7321L44.1321 49.0573L47.1721 49.5373V51.6973H38.5721Z" fill="white"/>
</svg>
