<svg width="37" height="36" viewBox="0 0 37 36" fill="none" xmlns="http://www.w3.org/2000/svg">
<path d="M21.0706 2.99101L23.8878 9.71517C24.5106 11.2019 25.9651 12.1695 27.577 12.1695H33.998C35.7566 12.1695 36.6591 14.2759 35.446 15.5491L30.0327 21.2307C29.0094 22.3046 28.6646 23.8567 29.1367 25.263L31.2594 31.5856C31.8222 33.262 30.0921 34.7904 28.4979 34.0252L20.9893 30.4209C19.8707 29.884 18.5662 29.8966 17.4581 30.455L10.3831 34.0208C8.82564 34.8057 7.07981 33.3603 7.56035 31.6838L9.39776 25.2733C9.81231 23.827 9.38022 22.2704 8.27948 21.2447L2.25675 15.6327C0.928109 14.3947 1.80415 12.1695 3.62019 12.1695H10.8751C12.4871 12.1695 13.9415 11.2019 14.5644 9.71505L17.3813 2.99107C18.0667 1.35481 20.385 1.35477 21.0706 2.99101Z" fill="white" stroke="#B4B3B3" stroke-width="2"/>
</svg>
