<svg width="18" height="17" viewBox="0 0 18 17" fill="none" xmlns="http://www.w3.org/2000/svg">
<g filter="url(#filter0_d_337_2163)">
<path d="M7.98493 0.946689C8.28319 0.0231073 9.58988 0.0231102 9.88814 0.946692L10.9437 4.21535C11.0771 4.62824 11.4614 4.90804 11.8953 4.90804H15.3242C16.2915 4.90804 16.6952 6.14454 15.9143 6.71534L13.1298 8.7508C12.7815 9.00544 12.6358 9.4548 12.7684 9.86542L13.8295 13.1512C14.1273 14.0735 13.0702 14.8378 12.2877 14.2658L9.52667 12.2475C9.17519 11.9905 8.69787 11.9905 8.3464 12.2475L5.58534 14.2658C4.80283 14.8378 3.74572 14.0735 4.0436 13.1512L5.1047 9.86542C5.23731 9.4548 5.09158 9.00544 4.74323 8.7508L1.95872 6.71535C1.17786 6.14454 1.58161 4.90804 2.54886 4.90804H5.97773C6.41162 4.90804 6.796 4.62824 6.92934 4.21535L7.98493 0.946689Z" fill="#FFF84D"/>
</g>
<defs>
<filter id="filter0_d_337_2163" x="0.546875" y="0.253906" width="16.7793" height="16.209" filterUnits="userSpaceOnUse" color-interpolation-filters="sRGB">
<feFlood flood-opacity="0" result="BackgroundImageFix"/>
<feColorMatrix in="SourceAlpha" type="matrix" values="0 0 0 0 0 0 0 0 0 0 0 0 0 0 0 0 0 0 127 0" result="hardAlpha"/>
<feOffset dy="1"/>
<feGaussianBlur stdDeviation="0.5"/>
<feComposite in2="hardAlpha" operator="out"/>
<feColorMatrix type="matrix" values="0 0 0 0 0 0 0 0 0 0 0 0 0 0 0 0 0 0 0.25 0"/>
<feBlend mode="normal" in2="BackgroundImageFix" result="effect1_dropShadow_337_2163"/>
<feBlend mode="normal" in="SourceGraphic" in2="effect1_dropShadow_337_2163" result="shape"/>
</filter>
</defs>
</svg>
